<svg xmlns="http://www.w3.org/2000/svg" xmlns:xlink="http://www.w3.org/1999/xlink" version="1.1" x="0px" y="0px" viewBox="0 0 100 125" enable-background="new 0 0 100 100" xml:space="preserve"><path d="M50.176,27.578c1.314,0,2.379,1.065,2.379,2.379c0,1.314-1.064,2.379-2.379,2.379c-1.312,0-2.379-1.065-2.379-2.379  C47.797,28.644,48.863,27.578,50.176,27.578z M55.299,26.658l9.544-8.499l-2.87-2.869l-8.498,9.544L55.299,26.658z M56.98,12.406  l-3.921-1.05l-2.589,12.515l2.492,0.667L56.98,12.406z M49.881,23.871l-2.588-12.516l-3.92,1.051l4.017,12.132L49.881,23.871z   M46.878,24.833l-8.499-9.544l-2.869,2.869l9.544,8.499L46.878,24.833z M44.758,27.168l-12.133-4.016l-1.05,3.92l12.516,2.588  L44.758,27.168z M44.09,30.25l-12.515,2.588l1.05,3.92l12.133-4.017L44.09,30.25z M45.053,33.254l-9.544,8.499l2.869,2.869  l8.499-9.544L45.053,33.254z M55.282,47.961l6.146,39.83c0.084,0.546-0.29,1.057-0.836,1.141c-0.052,0.008-0.103,0.012-0.153,0.012  c-0.485,0-0.911-0.354-0.987-0.848l-1.8-11.665h-14.95l-1.777,11.516c-0.076,0.494-0.502,0.848-0.987,0.848  c-0.051,0-0.102-0.004-0.153-0.012c-0.546-0.084-0.92-0.595-0.836-1.141l6.123-39.681l-1.698-0.455l4.015-12.132l2.492,0.668  l-2.487,12.036h5.568l-2.49-12.036l2.492-0.667l4.017,12.132L55.282,47.961z M47.173,49.578l7.888,10.062l-1.553-10.062H47.173z   M45.004,61.504h10.247l-8.562-10.921L45.004,61.504z M56.986,74.93L44.672,63.659L42.933,74.93H56.986z M57.247,73.813  l-1.668-10.809H45.438L57.247,73.813z M53.474,35.079l8.5,9.544l2.869-2.87l-9.544-8.498L53.474,35.079z M79.928,24.397  c-1.819,0.153-3.325,1.036-4.271,2.33l-7.234,0.419l0.354-0.073l-1.05-3.919L55.594,27.17l0.668,2.491l4.273-0.884l14.442-0.837  c-0.241,0.623-0.378,1.3-0.378,2.017s0.137,1.394,0.378,2.017l-14.435-0.836l-4.281-0.885l-0.668,2.493l12.132,4.015l1.051-3.92  l-0.345-0.071l7.226,0.419c0.945,1.294,2.451,2.177,4.271,2.33c3.823,0.321,9.925,0.644,9.925,0.644V23.753  C89.853,23.753,83.751,24.076,79.928,24.397z"/></svg>